<svg xmlns="http://www.w3.org/2000/svg" width="119" height="6">
    <path fill="#DF5F0A" fill-rule="evenodd" d="M109.749 5.47l-.056-.092-.356.616-7.905-4.547-7.29 4.023-.055-.092-.357.616-7.904-4.547-7.291 4.023-.055-.092-.357.616-7.904-4.547-7.291 4.023-.055-.092-.357.616-7.904-4.547-7.29 4.023-.056-.092-.357.616-7.904-4.547-7.29 4.023-.056-.092-.357.616-7.904-4.547-7.29 4.023-.056-.092-.357.616-7.904-4.547L.501 5.47l-.488-.807L8.461.003l.487.806-.182.1 7.028 4.042-.174-.288 8.448-4.66.487.806-.182.1 7.028 4.042-.174-.288 8.447-4.66.488.806-.182.1 7.028 4.042-.174-.288 8.447-4.66.488.806-.182.1 7.028 4.042-.174-.288 8.447-4.66.488.806-.182.1 7.028 4.042-.174-.288 8.447-4.66.488.806-.182.1 7.028 4.042-.174-.288 8.447-4.66.488.806-.182.1 7.028 4.042-.175-.288 8.448-4.66.488.806-8.448 4.661z"/>
</svg>
